# xmcd CD database file
#
# Track frame offsets:
#	150
#	15321
#	29690
#	43072
#	55761
#	68686
#	82543
#	100966
#	116511
#	130867
#	146471
#	158923
#	178001
#	191529
#	205368
#	216076
#	229875
#	244331
#	255564
#	268988
#	287580
#	303942
#	320277
#
# Disc length: 4480 seconds
#
# Revision: 1
# Processed by: cddbd v1.5.1PL2 Copyright (c) Steve Scherf et al.
# Submitted via: CDex 1.51
#
DISCID=44117e17
DTITLE=Don Williams - The Definitive Don Williams - His Greatest Hits
DYEAR=2006
DGENRE=Country
TTITLE0=I Recall A Gypsy Woman
TTITLE1=Amanda
TTITLE2=Shelter Of Your Eyes
TTITLE3=You're My Best Friend
TTITLE4=She Never Knew Me
TTITLE5=We Should Be Together
TTITLE6=I Believe In You
TTITLE7=Wonderful Tonight
TTITLE8=Tulsa Time
TTITLE9='Till The Rivers Run Dry
TTITLE10=Some Broken Hearts Never Mend
TTITLE11=Good Ole Boys Like Me
TTITLE12=I Wouldn't Want To Live If You Didn't Love Me
TTITLE13=I'm Just A Country Boy
TTITLE14=(Turn Out The Lights) And Love Me Tonight
TTITLE15=Say It Again
TTITLE16=If Hollywood Don't Need You (Honey, I Still Do)
TTITLE17=It Must Be Love
TTITLE18=Love Me Over Again
TTITLE19=Lord, I Hope This Day Is Good
TTITLE20=Love Is On A Roll
TTITLE21=That's The Thing About Love
TTITLE22=The Rose
EXTD=YEAR: 2006
EXTT0=
EXTT1=
EXTT2=
EXTT3=
EXTT4=
EXTT5=
EXTT6=
EXTT7=
EXTT8=
EXTT9=
EXTT10=
EXTT11=
EXTT12=
EXTT13=
EXTT14=
EXTT15=
EXTT16=
EXTT17=
EXTT18=
EXTT19=
EXTT20=
EXTT21=
EXTT22=
PLAYORDER=
